<?xml version="1.0" encoding="UTF-8" standalone="no"?>
<!-- Created with Inkscape (http://www.inkscape.org/) -->

<svg
   xmlns:osb="http://www.openswatchbook.org/uri/2009/osb"
   xmlns:dc="http://purl.org/dc/elements/1.1/"
   xmlns:cc="http://creativecommons.org/ns#"
   xmlns:rdf="http://www.w3.org/1999/02/22-rdf-syntax-ns#"
   xmlns:svg="http://www.w3.org/2000/svg"
   xmlns="http://www.w3.org/2000/svg"
   xmlns:sodipodi="http://sodipodi.sourceforge.net/DTD/sodipodi-0.dtd"
   xmlns:inkscape="http://www.inkscape.org/namespaces/inkscape"
   width="108.59107mm"
   height="52.215065mm"
   viewBox="0 0 108.59107 52.215065"
   version="1.1"
   id="svg8"
   inkscape:version="0.92.2 (5c3e80d, 2017-08-06)"
   sodipodi:docname="logo-MK-short.svg">
  <defs
     id="defs2">
    <linearGradient
       id="linearGradient2342"
       osb:paint="solid">
      <stop
         style="stop-color:#f5cb5c;stop-opacity:1;"
         offset="0"
         id="stop2340" />
    </linearGradient>
    <linearGradient
       id="linearGradient878"
       osb:paint="solid">
      <stop
         style="stop-color:#f5cb5c;stop-opacity:1;"
         offset="0"
         id="stop876" />
    </linearGradient>
    <linearGradient
       id="linearGradient872"
       osb:paint="solid">
      <stop
         style="stop-color:#000000;stop-opacity:1;"
         offset="0"
         id="stop870" />
    </linearGradient>
    <inkscape:path-effect
       effect="bspline"
       id="path-effect832"
       is_visible="true"
       weight="33.333333"
       steps="2"
       helper_size="0"
       apply_no_weight="true"
       apply_with_weight="true"
       only_selected="false" />
    <inkscape:path-effect
       effect="bspline"
       id="path-effect832-4"
       is_visible="true"
       weight="33.333333"
       steps="2"
       helper_size="0"
       apply_no_weight="true"
       apply_with_weight="true"
       only_selected="false" />
    <inkscape:path-effect
       effect="bspline"
       id="path-effect832-4-0"
       is_visible="true"
       weight="33.333333"
       steps="2"
       helper_size="0"
       apply_no_weight="true"
       apply_with_weight="true"
       only_selected="false" />
  </defs>
  <sodipodi:namedview
     id="base"
     pagecolor="#ffffff"
     bordercolor="#666666"
     borderopacity="1.0"
     inkscape:pageopacity="0.0"
     inkscape:pageshadow="2"
     inkscape:zoom="0.45255331"
     inkscape:cx="-444.93487"
     inkscape:cy="-302.02428"
     inkscape:document-units="mm"
     inkscape:current-layer="layer1"
     showgrid="false"
     showguides="false"
     inkscape:window-width="1366"
     inkscape:window-height="705"
     inkscape:window-x="-8"
     inkscape:window-y="-8"
     inkscape:window-maximized="1">
    <inkscape:grid
       type="xygrid"
       id="grid876"
       originx="-38.307846"
       originy="-235.44457" />
  </sodipodi:namedview>
  <metadata
     id="metadata5">
    <rdf:RDF>
      <cc:Work
         rdf:about="">
        <dc:format>image/svg+xml</dc:format>
        <dc:type
           rdf:resource="http://purl.org/dc/dcmitype/StillImage" />
        <dc:title></dc:title>
      </cc:Work>
    </rdf:RDF>
  </metadata>
  <g
     inkscape:label="Layer 1"
     inkscape:groupmode="layer"
     id="layer1"
     style="display:inline"
     transform="translate(-38.307846,-9.3403465)">
    <g
       id="g862"
       inkscape:export-filename="C:\Users\Zuza\Desktop\Responsive-Site\img\logo2.png"
       inkscape:export-xdpi="108"
       inkscape:export-ydpi="108"
       transform="translate(-11.45066,-106.14215)">
      <g
         id="g868"
         transform="translate(-2.8938484,2.0670346)">
        <g
           aria-label="M"
           style="font-style:normal;font-variant:normal;font-weight:normal;font-stretch:normal;font-size:50.79999924px;line-height:1.25;font-family:Tangerine;-inkscape-font-specification:Tangerine;letter-spacing:0px;word-spacing:0px;fill:#0d2c54;fill-opacity:1;stroke:none;stroke-width:0.26458332"
           id="text824-2">
          <path
             d="m 118.38755,113.41546 q 0.254,0 0.3556,0.3048 0.1016,0.254 -0.0508,0.4572 -2.5908,2.54 -4.6228,5.6896 -1.9812,3.0988 -3.3528,6.4008 -1.3716,3.302 -2.0828,6.5532 -0.6604,3.2004 -0.6604,5.8928 0,2.7432 0.6604,4.318 0.6604,1.524 1.8288,1.524 1.016,0 1.9304,-0.762 0.9652,-0.762 1.8796,-2.1336 0.1524,-0.1016 0.3048,0 0.2032,0.1016 0.1524,0.3556 -0.5588,0.8636 -1.27,1.7272 -0.7112,0.8128 -1.5748,1.524 -0.8128,0.6604 -1.6764,1.1176 -0.8636,0.4064 -1.6764,0.4064 -1.8796,0 -2.794,-1.7272 -0.9144,-1.7272 -0.9144,-4.6228 0,-2.3876 0.5588,-5.2832 0.5588,-2.9464 1.6256,-5.9944 1.1176,-3.048 2.6416,-5.9436 1.5748,-2.9464 3.556,-5.2832 -3.048,2.286 -6.2992,5.4864 -3.2512,3.2004 -6.2992,6.858 -2.997196,3.6068 -5.638796,7.4676 -2.5908,3.8608 -4.318,7.5184 -0.1016,0.2032 -0.4064,0.508 -0.3048,0.254 -0.7112,0.508 -0.4064,0.2032 -0.8128,0.3556 -0.4064,0.1524 -0.7112,0.1524 -0.4064,0 -0.3048,-0.3556 0.9652,-7.874 2.7432,-14.0208 1.8288,-6.1468 4.2672,-11.3284 -4.064,6.096 -7.9756,10.922 -3.8608,4.7752 -7.8232,8.0772 -3.9116,3.2512 -7.9756,4.9784 -4.064,1.7272 -8.382,1.7272 -4.7752,0 -7.366,-2.3876 -2.54,-2.3876 -2.54,-6.2992 0,-2.5908 1.4732,-4.6228 1.4732,-2.0828 4.064,-3.048 0.2032,-0.1016 0.254,0.1016 0.1016,0.2032 0,0.3556 -1.5748,1.016 -2.2352,2.3368 -0.6096,1.3208 -0.6096,3.4544 0,1.6764 0.5588,3.2004 0.5588,1.4732 1.6256,2.6416 1.0668,1.1176 2.6924,1.778 1.6256,0.6604 3.7592,0.6604 4.4196,0 8.4328,-2.032 4.064,-2.032 7.874,-5.5372 3.8608,-3.556 7.5184,-8.3312 3.7084,-4.7752 7.366,-10.2616 -3.556,-1.2192 -7.4676,-2.032 -3.8608,-0.8636 -7.4676,-0.8636 -4.1148,0 -6.35,2.3368 -2.2352,2.286 -2.7432,6.1976 -0.1016,0.254 -0.3048,0.2032 -0.1524,-0.0508 -0.2032,-0.3048 0.5588,-5.0292 3.6576,-7.6708 3.0988,-2.6416 8.0772,-2.6416 2.032,0 4.318,0.3048 2.286,0.254 4.4704,0.7112 2.2352,0.4572 4.2164,1.016 2.032,0.508 3.556,1.016 0.2032,-0.0508 0.508,-0.1524 0.2032,0.0508 0.254,0.254 0.0508,0.2032 -0.0508,0.3556 -0.7112,0.4064 -1.2192,1.1176 -0.4572,0.6604 -1.016,1.6764 -2.54,5.1308 -4.064,10.7188 -1.4732,5.5372 -2.4384,11.2268 2.3368,-4.2164 5.4864,-8.4328 3.2004,-4.2672 6.807196,-8.0772 3.6068,-3.81 7.4168,-7.0104 3.8608,-3.2004 7.5184,-5.334 z"
             style="font-style:normal;font-variant:normal;font-weight:normal;font-stretch:normal;font-size:50.79999924px;font-family:Tangerine;-inkscape-font-specification:Tangerine;fill:#0d2c54;fill-opacity:1;stroke-width:0.26458332"
             id="path6615" />
        </g>
        <g
           aria-label="K"
           style="font-style:normal;font-variant:normal;font-weight:normal;font-stretch:normal;font-size:50.79999924px;line-height:1.25;font-family:Tangerine;-inkscape-font-specification:Tangerine;letter-spacing:0px;word-spacing:0px;fill:#0d2c54;fill-opacity:1;stroke:none;stroke-width:0.26458332"
           id="text828-9">
          <path
             d="m 138.58663,129.43072 q -0.762,4.2672 -2.4892,7.5692 -1.6764,3.302 -4.1148,5.5372 -2.3876,2.2352 -5.4356,3.4036 -2.9972,1.1176 -6.4008,1.1176 -3.8608,0 -5.9436,-1.6256 -2.0828,-1.6256 -2.0828,-4.2164 0,-2.0828 1.3716,-3.8608 1.4224,-1.778 3.8608,-2.5908 0.254,-0.0508 0.3556,0.1016 0.1016,0.1524 0,0.4064 -1.3208,0.7112 -2.0828,1.9812 -0.7112,1.27 -0.7112,2.8956 0,2.4384 1.6764,3.9624 1.7272,1.524 4.8768,1.524 3.048,0 5.334,-0.762 2.286,-0.8128 3.9116,-2.4892 1.6256,-1.7272 2.6924,-4.4704 1.1176,-2.794 1.8288,-6.7564 0.6096,-3.5052 1.3716,-5.842 0.762,-2.3876 1.6256,-3.9624 0.8636,-1.5748 1.8288,-2.4892 1.016,-0.9144 2.1336,-1.4732 -1.3208,-0.508 -3.0988,-0.8128 -1.778,-0.3556 -3.9116,-0.3556 -3.1496,0 -5.4864,1.0668 -2.3368,1.016 -3.7592,2.8956 -1.3716,1.8288 -1.8288,4.3688 -0.4572,2.4892 0.1524,5.4356 -0.0508,0.254 -0.254,0.3556 -0.2032,0.0508 -0.3048,-0.1524 -0.7112,-3.1496 -0.1016,-6.0452 0.6096,-2.8956 2.3368,-5.08 1.778,-2.1844 4.6736,-3.4544 2.8956,-1.3208 6.8072,-1.3208 2.0828,0 4.064,0.508 1.9812,0.4572 3.556,1.1176 0.2032,0.3048 0,0.5588 -0.2032,0.254 -1.016,0.5588 -1.0668,0.4572 -1.8796,1.27 -0.762,0.8128 -1.3716,2.2352 -0.6096,1.4224 -1.1176,3.6068 -0.508,2.1844 -1.0668,5.2832 z m 4.064,-1.9812 q 1.1176,3.9624 2.1844,7.1628 1.1176,3.2004 2.4384,5.4864 1.3716,2.2352 2.9972,3.4544 1.6256,1.1684 3.81,1.1684 1.1684,0 2.0828,-0.5588 0.9144,-0.6096 1.4732,-1.524 0.1524,-0.1524 0.3048,0.0508 0.2032,0.1524 0.1016,0.4064 -0.9144,1.7272 -2.54,2.8448 -1.5748,1.1176 -3.556,1.1176 -2.3368,0 -4.1148,-1.3716 -1.778,-1.4224 -3.2004,-3.81 -1.3716,-2.3876 -2.4384,-5.5372 -1.016,-3.1496 -1.8796,-6.6548 -0.0508,-0.254 -0.0508,-0.4572 0.0508,-0.254 0.3048,-0.508 2.286,-2.9464 4.7244,-5.588 2.4892,-2.6416 4.9276,-4.572 2.4384,-1.9812 4.6736,-3.0988 2.286,-1.1684 4.2164,-1.1684 1.016,0 1.5748,0.762 0.5588,0.762 0.5588,1.8288 0,0.7112 -0.2032,1.6764 -0.1524,0.9652 -0.4064,1.6764 -0.4064,0.254 -0.508,-0.1524 0.254,-1.2192 -0.3556,-2.0828 -0.6096,-0.9144 -2.286,-0.9144 -3.2512,0 -7.112,2.7432 -3.8608,2.7432 -7.7216,7.62 z"
             style="font-style:normal;font-variant:normal;font-weight:normal;font-stretch:normal;font-size:50.79999924px;font-family:Tangerine;-inkscape-font-specification:Tangerine;fill:#0d2c54;fill-opacity:1;stroke-width:0.26458332"
             id="path6618" />
        </g>
      </g>
    </g>
    <g
       id="g977"
       transform="translate(-11.45066,-100.85048)">
      <path
         inkscape:path-effect="#path-effect832-4"
         inkscape:export-ydpi="108"
         inkscape:export-xdpi="108"
         sodipodi:nodetypes="cc"
         inkscape:original-d="m 59.531353,159.29311 c 28.222463,-2.7e-4 56.444707,-2.7e-4 84.666687,0"
         inkscape:connector-curvature="0"
         id="path830-1"
         d="m 59.531353,159.29311 c 28.222463,0 56.444707,0 84.666687,0"
         style="opacity:1;fill:#f5cb5c;fill-opacity:1;stroke:#f5cb5c;stroke-width:1;stroke-linecap:butt;stroke-linejoin:miter;stroke-miterlimit:4;stroke-dasharray:none;stroke-opacity:1" />
      <g
         id="g970">
        <rect
           style="opacity:1;fill:#f5cb5c;fill-opacity:1;stroke:#b2840a;stroke-width:0.26645565;stroke-linecap:round;stroke-linejoin:round;stroke-miterlimit:4;stroke-dasharray:none;stroke-opacity:0.46031745"
           id="rect844-0"
           width="3.4235158"
           height="3.409807"
           x="187.28548"
           y="58.190544"
           transform="matrix(0.77139673,0.63635453,-0.7560881,0.65446985,0,0)"
           inkscape:export-xdpi="108"
           inkscape:export-ydpi="108" />
        <rect
           style="opacity:1;fill:#f5cb5c;fill-opacity:1;stroke:#b2840a;stroke-width:0.26555029;stroke-linecap:round;stroke-linejoin:round;stroke-miterlimit:4;stroke-dasharray:none;stroke-opacity:0.46031745"
           id="rect844-1-8-1"
           width="3.3687122"
           height="3.3589723"
           x="190.77213"
           y="48.221233"
           transform="matrix(0.75631604,0.65420643,-0.7404794,0.67207905,0,0)"
           inkscape:export-xdpi="108"
           inkscape:export-ydpi="108" />
        <rect
           style="opacity:1;fill:#f5cb5c;fill-opacity:1;stroke:#b2840a;stroke-width:0.26458922;stroke-linecap:round;stroke-linejoin:round;stroke-miterlimit:4;stroke-dasharray:none;stroke-opacity:0.46031745"
           id="rect844-1-4"
           width="3.9046218"
           height="3.9055092"
           x="184.0609"
           y="38.296055"
           transform="matrix(0.71225699,0.70191879,-0.69516871,0.71884662,0,0)"
           inkscape:export-xdpi="108"
           inkscape:export-ydpi="108" />
      </g>
    </g>
  </g>
</svg>
